<mxfile host="app.diagrams.net" modified="2023-10-17T13:51:50.550Z" agent="Mozilla/5.0 (Windows NT 10.0; Win64; x64) AppleWebKit/537.36 (KHTML, like Gecko) Chrome/117.0.0.0 Safari/537.36" etag="2Zf5y6EufnvdqrTFERu3" version="22.0.4" type="device">
  <diagram name="Page-1" id="QuHabSzM2pI7VwarMkSh">
    <mxGraphModel dx="1562" dy="822" grid="1" gridSize="10" guides="1" tooltips="1" connect="1" arrows="1" fold="1" page="1" pageScale="1" pageWidth="850" pageHeight="1100" math="0" shadow="0">
      <root>
        <mxCell id="0" />
        <mxCell id="1" parent="0" />
        <mxCell id="tE2kihJmOX_taGmfQowf-4" style="edgeStyle=orthogonalEdgeStyle;orthogonalLoop=1;jettySize=auto;html=1;startArrow=classic;startFill=1;strokeColor=default;curved=1;dashed=1;dashPattern=12 12;" edge="1" parent="1" source="tE2kihJmOX_taGmfQowf-1" target="tE2kihJmOX_taGmfQowf-2">
          <mxGeometry relative="1" as="geometry">
            <Array as="points">
              <mxPoint x="295" y="250" />
            </Array>
          </mxGeometry>
        </mxCell>
        <mxCell id="tE2kihJmOX_taGmfQowf-5" style="edgeStyle=orthogonalEdgeStyle;orthogonalLoop=1;jettySize=auto;html=1;startArrow=classic;startFill=1;curved=1;dashed=1;dashPattern=12 12;" edge="1" parent="1" source="tE2kihJmOX_taGmfQowf-1" target="tE2kihJmOX_taGmfQowf-3">
          <mxGeometry relative="1" as="geometry" />
        </mxCell>
        <mxCell id="tE2kihJmOX_taGmfQowf-1" value="&lt;font style=&quot;font-size: 18px;&quot;&gt;roscore&lt;/font&gt;" style="ellipse;whiteSpace=wrap;html=1;fillColor=#d5e8d4;strokeColor=#82b366;" vertex="1" parent="1">
          <mxGeometry x="365" y="210" width="120" height="80" as="geometry" />
        </mxCell>
        <mxCell id="tE2kihJmOX_taGmfQowf-6" style="edgeStyle=orthogonalEdgeStyle;rounded=0;orthogonalLoop=1;jettySize=auto;html=1;" edge="1" parent="1" source="tE2kihJmOX_taGmfQowf-2" target="tE2kihJmOX_taGmfQowf-3">
          <mxGeometry relative="1" as="geometry" />
        </mxCell>
        <mxCell id="tE2kihJmOX_taGmfQowf-2" value="&lt;font style=&quot;font-size: 18px;&quot;&gt;talker&lt;/font&gt;" style="ellipse;whiteSpace=wrap;html=1;fillColor=#dae8fc;strokeColor=#6c8ebf;" vertex="1" parent="1">
          <mxGeometry x="235" y="360" width="120" height="80" as="geometry" />
        </mxCell>
        <mxCell id="tE2kihJmOX_taGmfQowf-3" value="&lt;font style=&quot;font-size: 18px;&quot;&gt;listener&lt;/font&gt;" style="ellipse;whiteSpace=wrap;html=1;fillColor=#f8cecc;strokeColor=#b85450;" vertex="1" parent="1">
          <mxGeometry x="495" y="360" width="120" height="80" as="geometry" />
        </mxCell>
      </root>
    </mxGraphModel>
  </diagram>
</mxfile>
